<svg viewBox="0 0 469.85 291.72" xmlns="http://www.w3.org/2000/svg"><g fill="#fff"><path d="m68.12 147.38a33.43 33.43 0 0 1 7.81 4.62 3 3 0 0 0 1.81.85c1.26 0 2.09-1.9 2.47-5.71h2.19q-.4 6.15-.4 21.86h-2.17a75.09 75.09 0 0 0 -1.9-8.91 16 16 0 0 0 -2.86-5.19 17.62 17.62 0 0 0 -7.29-5.57 24.36 24.36 0 0 0 -9.57-1.86 15.81 15.81 0 0 0 -10.81 4.09 26.72 26.72 0 0 0 -7.19 11.67 55.19 55.19 0 0 0 -2.57 17.77 51.13 51.13 0 0 0 2.76 17.81q2.76 7.42 7.67 11.29a17.46 17.46 0 0 0 11.09 3.9 24.38 24.38 0 0 0 9.24-1.81 15.5 15.5 0 0 0 7-5.43 18.26 18.26 0 0 0 2.81-5.76 67.06 67.06 0 0 0 1.62-9.34h2.17q0 16.4.38 22.86h-2.17a16.81 16.81 0 0 0 -.81-4.33q-.53-1.29-1.47-1.29a4.17 4.17 0 0 0 -2 .77 40.83 40.83 0 0 1 -8.2 4.62 25.3 25.3 0 0 1 -9.43 1.57 30.18 30.18 0 0 1 -15.85-4.1 27.36 27.36 0 0 1 -10.58-11.86q-3.77-7.76-3.76-18.52a42.78 42.78 0 0 1 3.89-18.57 30 30 0 0 1 10.76-12.57 28.24 28.24 0 0 1 15.67-4.48 26.07 26.07 0 0 1 9.69 1.62z"/><path d="m149.17 212.63v1.9q-3.81-.28-10.19-.28-8.19 0-12.19.28v-1.9a15.58 15.58 0 0 0 5.19-.91 2.61 2.61 0 0 0 1.57-2.61 13.1 13.1 0 0 0 -1.14-4.48l-5.81-15.63h-23l-4 10.1a25 25 0 0 0 -1.9 7.81 4.77 4.77 0 0 0 2 4.29 12.1 12.1 0 0 0 6.24 1.43v1.9q-5.43-.28-11-.28-4.29 0-7.14.28v-1.9q4.75-1.14 7.52-8.29l22.38-57.72h1.53l23.24 59.91q2.41 5.91 6.7 6.1zm-23.34-25.53-10.66-28.48-10.86 28.48z"/><path d="m378 212.63v1.9c-2.54-.19-5.93-.28-10.19-.28q-8.19 0-12.19.28v-1.9a15.58 15.58 0 0 0 5.19-.91 2.61 2.61 0 0 0 1.57-2.61 13.1 13.1 0 0 0 -1.14-4.48l-5.78-15.63h-23l-3.9 10.09a24.77 24.77 0 0 0 -1.91 7.81 4.74 4.74 0 0 0 2 4.29 12.1 12.1 0 0 0 6.24 1.43v1.9q-5.43-.28-11-.28-4.27 0-7.14.28v-1.9q4.75-1.14 7.52-8.29l22.39-57.72h1.52l23.24 59.91q2.34 5.93 6.58 6.11zm-23.3-25.53-10.7-28.48-10.83 28.48z"/><path d="m459.09 147.1v1.9q-5.34 1.25-7.52 8.29l-18 57.72h-1.57l-16.57-49-15.15 49h-1.48l-20.19-59.91q-2-5.91-6.58-6.1v-1.9q3.92.28 10.2.28 6.86 0 10.28-.28v1.9a7.33 7.33 0 0 0 -3.62 1 2.72 2.72 0 0 0 -1 2.38 16.59 16.59 0 0 0 1 4.66l13.91 42.48 11.62-36.86-2.57-7.52c-1.27-3.94-3.15-6-5.62-6.1v-1.9q3.42.29 9.24.28 8.19 0 12.19-.28v1.86a16.62 16.62 0 0 0 -5.05.81 2.57 2.57 0 0 0 -1.43 2.62 15.2 15.2 0 0 0 1 4.57l13.71 42.39 11.72-36.86a26.13 26.13 0 0 0 1.52-7.72c0-2.09-.64-3.57-1.9-4.43s-3.34-1.31-6.2-1.38v-1.9q5.43.28 11 .28 4.22 0 7.06-.28z"/><path d="m234.3 69-72.13 110.15a1.87 1.87 0 0 0 0 2.08l72.13 110.16a.75.75 0 0 0 1 .21 1 1 0 0 0 .21-.21l72.12-110.16a1.87 1.87 0 0 0 0-2.08l-72.08-110.15a.74.74 0 0 0 -1-.21.84.84 0 0 0 -.25.21zm-66.23 110 66.26-101.25a.71.71 0 0 1 1-.21.7.7 0 0 1 .21.21l66.23 101.25a2.23 2.23 0 0 1 0 2.45l-66.25 101.17a.71.71 0 0 1 -1 .21.7.7 0 0 1 -.21-.21l-66.24-101.21a2.24 2.24 0 0 1 0-2.41z"/><path d="m365.73 118.16-41.11-62.43a.87.87 0 0 0 -1.21-.24.78.78 0 0 0 -.24.24l-25.49 37.38a.7.7 0 0 1 -1 .19.61.61 0 0 1 -.2-.19l-60.93-92.72a.87.87 0 0 0 -1.21-.24.78.78 0 0 0 -.24.24l-60.81 91.18a.7.7 0 0 1 -1 .19.61.61 0 0 1 -.2-.19l-24.43-35.85a.87.87 0 0 0 -1.21-.24.78.78 0 0 0 -.24.24l-41.28 62.69a1 1 0 0 1 -.83.45l-103.42-.24a.67.67 0 0 0 -.68.68v3.46a.69.69 0 0 0 .69.69l156.3-.12a1.16 1.16 0 0 0 1-.51l77.01-115.12 74.93 115.22a1.16 1.16 0 0 0 1 .53h158.24a.68.68 0 0 0 .68-.68v-3.47a.67.67 0 0 0 -.67-.69h-102.61a1 1 0 0 1 -.84-.45zm-211.26.84-44.22-.11 36.14-55.14a.71.71 0 0 1 1-.21.7.7 0 0 1 .21.21l22.25 33-14.55 21.79a1 1 0 0 1 -.83.46zm145.53-20.66 23.32-34.59a.71.71 0 0 1 1-.2.76.76 0 0 1 .2.2l36 54.86h-46.79a1 1 0 0 1 -.83-.45z"/><path d="m298.79 125.45q-6.85-6-17.26-6a28.27 28.27 0 0 0 -12.63 2.72 9.07 9.07 0 0 0 -5.53 8.67 7.45 7.45 0 0 0 2.63 6.16 9.43 9.43 0 0 0 6.11 2.14 9.68 9.68 0 0 0 6.52-2.31 7.26 7.26 0 0 0 2.73-5.78 9 9 0 0 0 -1.24-4.37 7.23 7.23 0 0 0 -3.38-3.22c.55-1 2.2-1.48 4.95-1.49a20.13 20.13 0 0 1 13.46 4.87 15 15 0 0 1 5.69 11.81 13 13 0 0 1 -3.14 8.42q-3.13 3.79-11.06 7.43a115.5 115.5 0 0 1 -12 4.62q-6.64 2.08-16.55 4.88l-11.72 3.47q-11.4 4-17.09 9.83a19.68 19.68 0 0 0 -5.7 14.28q0 9.57 6.19 14.44a22.46 22.46 0 0 0 14.29 4.88 25.08 25.08 0 0 0 13.53-3.8q6.11-3.79 6.11-10.4a8.87 8.87 0 0 0 -2.39-6.44 8.49 8.49 0 0 0 -6.36-2.48 9.38 9.38 0 0 0 -6.52 2.31 8 8 0 0 0 -2.56 6.28 7.15 7.15 0 0 0 2.31 5.77 12 12 0 0 0 5.45 2.65c-.33 1.1-1.59 2-3.8 2.64a21.4 21.4 0 0 1 -6.1 1 17 17 0 0 1 -10.32-3.63 11.39 11.39 0 0 1 -4.87-9.58 10.76 10.76 0 0 1 3.79-8.34 34.9 34.9 0 0 1 10.73-6q6.12-2.31 19-6.28 9.75 3.81 13.21 10.57a29.17 29.17 0 0 1 3.47 13.37 23.78 23.78 0 0 1 -5.86 15.93 37.75 37.75 0 0 1 -15.88 10.53 61.88 61.88 0 0 1 -21.72 3.72 58.34 58.34 0 0 1 -22.61-4.21 36 36 0 0 1 -15.85-12.3 32.06 32.06 0 0 1 -5.82-19.16q0-20.62 21.46-27.07 3.8 1.65 6.6 2.64a16.37 16.37 0 0 0 5.45 1 6.09 6.09 0 0 0 3.39-.83 2.65 2.65 0 0 0 1.24-2.31 3.06 3.06 0 0 0 -1.82-2.8 9.91 9.91 0 0 0 -4.79-1 60.61 60.61 0 0 0 -10.23 1 24.63 24.63 0 0 1 -8.43-18.83q0-9.24 5.29-14.44t13.87-5.2a19.9 19.9 0 0 1 8.34 1.56q3.38 1.58 4.2 3.72a9.57 9.57 0 0 0 -6.27 2.89 8.57 8.57 0 0 0 -2.48 6.19 7.63 7.63 0 0 0 2.56 6 8.89 8.89 0 0 0 6 2.22 9.64 9.64 0 0 0 6.44-2.39 7.93 7.93 0 0 0 2.81-6.36 12.92 12.92 0 0 0 -1.57-5.86 18 18 0 0 0 -4.54-5.53q-6.12-5-17.17-5a36.11 36.11 0 0 0 -15.11 2.89 22.62 22.62 0 0 0 -9.58 7.59 17.66 17.66 0 0 0 -3.22 10.16 19.92 19.92 0 0 0 4.3 12 29.46 29.46 0 0 0 12.38 9.25 53.51 53.51 0 0 0 -12.79 5.46 38.19 38.19 0 0 0 -12.33 11.42q-5.37 7.52-5.37 18.41a36.93 36.93 0 0 0 1.37 10.24l11.21 17.13a49.8 49.8 0 0 0 14.23 8.71 70 70 0 0 0 26.67 5q15.34 0 26.75-5.53t17.5-14.61a34.06 34.06 0 0 0 6.11-19.32 32.09 32.09 0 0 0 -4.38-16.75q-4.38-7.35-13.62-11.31 18.16-5.61 24.43-8.59a30.31 30.31 0 0 0 11.4-9.33 22.67 22.67 0 0 0 4.29-13.78q.06-10.21-6.8-16.24z"/><path d="m15.62 254.38a6.87 6.87 0 0 0 4.85 2.24 4.45 4.45 0 0 0 4.5-4.4c0-2.81-2.37-4.3-4.81-4.3h-1.24l-.31-.77 5.05-5.9a7.84 7.84 0 0 1 .8-.83h-7.16a.51.51 0 0 0 -.57.44.29.29 0 0 0 0 .13v1.26h-1.08v-1.36c0-1.06.44-1.5 1.49-1.5h8.86v.78l-5.82 6.72c2.17 0 5.95 1.08 5.95 5.33a5.62 5.62 0 0 1 -5.72 5.52 8.06 8.06 0 0 1 -5.61-2.5z"/><path d="m30 256a5.82 5.82 0 0 0 2.65.64c4.2 0 6.31-4.4 6.57-8.55h-.05a5.77 5.77 0 0 1 -5.13 2.6 5.31 5.31 0 0 1 -5.53-5.1 4.34 4.34 0 0 1 0-.51c0-3.92 2.57-6 5.53-6 4 0 6.32 3.71 6.32 8.17s-2.19 10.49-7.76 10.49a6.83 6.83 0 0 1 -3.14-.73zm9.09-10c0-2.45-2-5.87-5-5.87-2.78 0-4.41 2.06-4.41 4.92a4.22 4.22 0 0 0 3.89 4.52 3.37 3.37 0 0 0 .55 0c2.74 0 5-2 5-3.58z"/><path d="m43 242.48a3.36 3.36 0 1 1 3.37 3.35 3.36 3.36 0 0 1 -3.37-3.35zm5.62 0a2.28 2.28 0 0 0 -2.22-2.34 2.33 2.33 0 1 0 2.27 2.39z"/><path d="m59.67 254.38a6.83 6.83 0 0 0 4.84 2.24 4.46 4.46 0 0 0 4.49-4.43c0-2.81-2.37-4.3-4.82-4.3h-1.18l-.31-.77 5-5.9a7.84 7.84 0 0 1 .8-.83h-7.15a.51.51 0 0 0 -.57.44.29.29 0 0 0 0 .13v1.26h-1.08v-1.36c0-1.06.44-1.5 1.5-1.5h8.86v.78l-5.82 6.72c2.16 0 6 1.08 6 5.33a5.63 5.63 0 0 1 -5.72 5.52 8.09 8.09 0 0 1 -5.62-2.5z"/><path d="m72.65 249.54c0-4.51 2.19-10.49 7.75-10.49a6.83 6.83 0 0 1 3.14.73l-.54 1a5.82 5.82 0 0 0 -2.65-.64c-4.2 0-6.31 4.38-6.57 8.52a5.79 5.79 0 0 1 5.22-2.57 5.31 5.31 0 0 1 5.54 5.09 4.51 4.51 0 0 1 0 .52c0 3.92-2.58 6-5.54 6-4 .01-6.35-3.7-6.35-8.16zm6.28 7.08c2.78 0 4.41-2.06 4.41-4.92a4.22 4.22 0 0 0 -3.89-4.52 3.25 3.25 0 0 0 -.54 0c-2.79 0-5 2-5 3.58 0 2.44 1.96 5.86 5.02 5.86z"/><path d="m88 239.13h1.34l-1.21 3.87h-1z"/><path d="m92.27 254.38a6.87 6.87 0 0 0 4.85 2.24 4.45 4.45 0 0 0 4.5-4.4c0-2.81-2.37-4.3-4.81-4.3h-1.24l-.31-.77 5-5.9a7.84 7.84 0 0 1 .8-.83h-7.06a.51.51 0 0 0 -.57.44.29.29 0 0 0 0 .13v1.26h-1.13v-1.36c0-1.06.44-1.5 1.49-1.5h8.87v.78l-5.83 6.72c2.17 0 6 1.08 6 5.33a5.62 5.62 0 0 1 -5.72 5.52 8.06 8.06 0 0 1 -5.61-2.5z"/><path d="m105.69 256.37h4.1v-15.59a6.2 6.2 0 0 1 -1 1.11l-2.12 2.11-.77-.75 3.89-3.92h1.11v17h4v1h-9.2z"/><path d="m117.39 255.88h1.46v1.52h-1.46z"/><path d="m120.45 251.47 9.35-12.11h1v11.85h2.91v1h-2.91v5.16h-1.11v-5.16h-9.27zm9.27-8.71c0-.72.08-1.62.08-1.62h-.05s-.44.64-.9 1.24l-6 7.75a14 14 0 0 1 -1 1.11s.72-.08 1.45-.08h6.38z"/><path d="m136.06 239.13h1.34l-1.24 3.87h-1zm2.58 0h1.36l-1.26 3.87h-1z"/><path d="m149.63 256.37h1.11a.51.51 0 0 0 .57-.44.28.28 0 0 0 0-.13v-16.44h1l10.28 14.15c.59.82 1.47 2.26 1.47 2.26h.05s-.13-1.36-.13-2.26v-12.65c0-1.06.44-1.5 1.49-1.5h1.29v1h-1.11a.5.5 0 0 0 -.56.43.33.33 0 0 0 0 .14v16.47h-1l-10.28-14.15c-.6-.82-1.47-2.26-1.47-2.26s.13 1.36.13 2.26v12.65c0 1.06-.44 1.5-1.5 1.5h-1.29z"/><path d="m297.37 255.83h4.1v-15.59h-.05a6.27 6.27 0 0 1 -.95 1.11l-2.14 2.14-.77-.75 3.89-3.92h1.1v17h4v1h-9.2z"/><path d="m308.55 247.84c0-5.2 1.49-9.33 6.08-9.33s6.08 4.13 6.08 9.33-1.5 9.33-6.08 9.33-6.08-4.1-6.08-9.33zm11 0c0-4.64-1.08-8.24-4.92-8.24s-4.92 3.6-4.92 8.24 1.08 8.24 4.92 8.24 4.92-3.58 4.92-8.24z"/><path d="m323.54 249c0-4.51 2.19-10.49 7.75-10.49a6.9 6.9 0 0 1 3.15.73l-.55 1a5.82 5.82 0 0 0 -2.65-.64c-4.2 0-6.31 4.38-6.57 8.52h.05a5.75 5.75 0 0 1 5.13-2.57 5.31 5.31 0 0 1 5.54 5.09 4.51 4.51 0 0 1 0 .52c0 3.92-2.58 6-5.54 6-3.99.01-6.31-3.7-6.31-8.16zm6.28 7.08c2.79 0 4.41-2.06 4.41-4.92a4.22 4.22 0 0 0 -3.89-4.52 3.25 3.25 0 0 0 -.54 0c-2.78 0-5 2-5 3.58 0 2.44 1.96 5.86 5.02 5.86z"/><path d="m338 241.94a3.37 3.37 0 1 1 3.39 3.35 3.37 3.37 0 0 1 -3.39-3.35zm5.62 0a2.28 2.28 0 0 0 -2.22-2.34h-.05a2.33 2.33 0 1 0 2.27 2.39z"/><path d="m354.86 247.84c0-5.2 1.49-9.33 6.08-9.33s6.08 4.13 6.08 9.33-1.5 9.33-6.08 9.33-6.08-4.1-6.08-9.33zm11 0c0-4.64-1.08-8.24-4.92-8.24s-4.92 3.6-4.92 8.24 1.08 8.24 4.92 8.24 4.92-3.58 4.92-8.24z"/><path d="m379.41 243.46a3.84 3.84 0 0 0 -3.8-3.88h-.38c-2 0-3.58 1-3.58 2.19v.87h-1.11v-1.13c0-2.24 3.07-3 4.72-3 3.55 0 5.3 2.37 5.3 5 0 6.42-9.91 6-9.91 11.8a.51.51 0 0 0 .42.57h8.7a.5.5 0 0 0 .56-.43.33.33 0 0 0 0-.14v-1.31h1.08v1.36c0 1.06-.43 1.5-1.49 1.5h-8.92c-1.05 0-1.49-.44-1.49-1.5.03-6.77 9.9-6.13 9.9-11.9z"/><path d="m385 238.59h1.34l-1.24 3.89h-1z"/><path d="m385.82 250.93 9.35-12.11h1v11.85h2.91v1h-2.91v5.16h-1.08v-5.13h-9.27zm9.27-8.71c0-.72.08-1.62.08-1.62h-.05s-.44.64-.91 1.24l-6 7.75a12 12 0 0 1 -1 1.11v.05s.72-.08 1.44-.08h6.35z"/><path d="m401.12 253.84a6.83 6.83 0 0 0 4.84 2.24 4.46 4.46 0 0 0 4.51-4.41c0-2.81-2.37-4.3-4.82-4.3h-1.24l-.31-.77 5-5.9a7.84 7.84 0 0 1 .8-.83h-7.16a.51.51 0 0 0 -.57.44.29.29 0 0 0 0 .13v1.26h-1.08v-1.36c0-1.06.44-1.5 1.5-1.5h8.86v.78l-5.82 6.72c2.16 0 5.95 1.08 5.95 5.33a5.62 5.62 0 0 1 -5.72 5.52 8.09 8.09 0 0 1 -5.62-2.5z"/><path d="m414.64 255.34h1.47v1.52h-1.47z"/><path d="m427.78 241.53c.46-.9 1-1.68 1-1.68h-8.86a.51.51 0 0 0 -.57.44.29.29 0 0 0 0 .13v1.26h-1.08v-1.36c0-1.06.44-1.5 1.49-1.5h10.38v.78l-9.14 17.26h-1.3z"/><path d="m433.44 238.59h1.34l-1.24 3.89h-1zm2.58 0h1.34l-1.24 3.89h-1z"/><path d="m447 240.42c-.13-.49-.49-.57-1-.57h-.2v-1h.2c1.28 0 1.83.21 2.16 1.5l3.4 13.19c.23.87.44 1.93.44 1.93s.26-1 .52-1.93l4.3-14.58h1.31l3.87 14.58c.23.9.44 1.93.44 1.93h.05s.21-1.06.44-1.93l3.42-13.19c.34-1.29.88-1.5 2.17-1.5h.18v1h-.21c-.51 0-.87.08-1 .57l-4.33 16.44h-1.37l-3.63-13.61c-.31-1.15-.64-2.86-.64-2.86s-.39 1.68-.73 2.84l-4 13.63h-1.37z"/></g></svg>